
<svg width="111" height="111" viewBox="0 0 111 111" fill="none" xmlns="http://www.w3.org/2000/svg">
<path fill-rule="evenodd" clip-rule="evenodd" d="M63.4286 11.8929C63.4286 7.51403 59.8788 3.96429 55.5 3.96429C51.1212 3.96429 47.5714 7.51403 47.5714 11.8929V47.5714H11.8929C7.51403 47.5714 3.96429 51.1212 3.96429 55.5C3.96429 59.8788 7.51403 63.4286 11.8929 63.4286H47.5714V99.1071C47.5714 103.486 51.1212 107.036 55.5 107.036C59.8788 107.036 63.4286 103.486 63.4286 99.1071V63.4286H99.1071C103.486 63.4286 107.036 59.8788 107.036 55.5C107.036 51.1212 103.486 47.5714 99.1071 47.5714H63.4286V11.8929Z" fill="url(#paint0_linear_19011_2)"/>
<defs>
<linearGradient id="paint0_linear_19011_2" x1="20.8125" y1="23.7857" x2="104.063" y2="69.9141" gradientUnits="userSpaceOnUse">
<stop stop-color="#FFD600"/>
<stop offset="1" stop-color="#00D078"/>
</linearGradient>
</defs>
</svg>
