<svg width="105" height="105" viewBox="0 0 105 105" fill="none" xmlns="http://www.w3.org/2000/svg">
<path d="M52.4858 69.2917C52.0577 69.2917 51.6615 69.2195 51.2969 69.075C50.9322 68.9305 50.5678 68.6778 50.2031 68.3167L33.6875 51.9583C33.0312 51.2888 32.7213 50.5073 32.7578 49.614C32.7943 48.7213 33.1264 47.95 33.7542 47.3C34.4389 46.65 35.2369 46.325 36.1484 46.325C37.06 46.325 37.8438 46.65 38.5 47.3L49.2188 58.025V21.0833C49.2188 20.1625 49.5353 19.3904 50.1681 18.7672C50.8003 18.1446 51.5841 17.8333 52.5197 17.8333C53.4544 17.8333 54.2318 18.1446 54.8516 18.7672C55.4713 19.3904 55.7812 20.1625 55.7812 21.0833V58.025L66.6094 47.3C67.251 46.65 68.0131 46.343 68.8953 46.3792C69.7775 46.4153 70.5611 46.7583 71.2458 47.4083C71.8736 48.0583 72.1875 48.8346 72.1875 49.7375C72.1875 50.6403 71.8594 51.4167 71.2031 52.0667L54.7969 68.3167C54.4322 68.6778 54.063 68.9305 53.6889 69.075C53.3142 69.2195 52.913 69.2917 52.4858 69.2917ZM24.0625 87.1667C22.3125 87.1667 20.7812 86.5167 19.4687 85.2167C18.1562 83.9167 17.5 82.4 17.5 80.6667V68.425C17.5 67.5042 17.8165 66.7322 18.4494 66.1088C19.0816 65.4863 19.8654 65.175 20.8009 65.175C21.7357 65.175 22.5131 65.4863 23.1328 66.1088C23.7525 66.7322 24.0625 67.5042 24.0625 68.425V80.6667H80.9375V68.425C80.9375 67.5042 81.254 66.7322 81.8869 66.1088C82.5191 65.4863 83.3028 65.175 84.2384 65.175C85.1732 65.175 85.9506 65.4863 86.5703 66.1088C87.19 66.7322 87.5 67.5042 87.5 68.425V80.6667C87.5 82.4 86.8437 83.9167 85.5312 85.2167C84.2187 86.5167 82.6875 87.1667 80.9375 87.1667H24.0625Z" fill="#ffffff"/>
</svg>
