<svg width="177" height="177" viewBox="0 0 177 177" fill="none" xmlns="http://www.w3.org/2000/svg">
<path d="M22.125 88.5C22.125 96.6125 28.7625 103.25 36.875 103.25C44.9875 103.25 51.625 96.6125 51.625 88.5C51.625 80.3875 44.9875 73.75 36.875 73.75C28.7625 73.75 22.125 80.3875 22.125 88.5ZM125.375 88.5C125.375 96.6125 132.013 103.25 140.125 103.25C148.238 103.25 154.875 96.6125 154.875 88.5C154.875 80.3875 148.238 73.75 140.125 73.75C132.013 73.75 125.375 80.3875 125.375 88.5ZM73.75 88.5C73.75 96.6125 80.3875 103.25 88.5 103.25C96.6125 103.25 103.25 96.6125 103.25 88.5C103.25 80.3875 96.6125 73.75 88.5 73.75C80.3875 73.75 73.75 80.3875 73.75 88.5Z" fill="white"/>
</svg>
